<?xml version="1.0" standalone="no"?>
<!DOCTYPE svg PUBLIC "-//W3C//DTD SVG 20010904//EN"
 "http://www.w3.org/TR/2001/REC-SVG-20010904/DTD/svg10.dtd">
<svg version="1.0" xmlns="http://www.w3.org/2000/svg"
 width="200.000000pt" height="200.000000pt" viewBox="0 0 200.000000 200.000000"
 preserveAspectRatio="xMidYMid meet">
<metadata>
Created by potrace 1.11, written by Peter Selinger 2001-2013
</metadata>
<g transform="translate(0.000000,200.000000) scale(0.100000,-0.100000)"
fill="#000000" stroke="none">
<path d="M431 1718 c-51 -14 -134 -103 -150 -161 -35 -125 16 -239 136 -300
25 -13 31 -22 27 -39 -24 -122 -39 -302 -39 -468 0 -84 3 -102 28 -152 67
-137 234 -245 477 -310 74 -20 87 -20 143 -9 159 33 333 114 423 197 97 90
129 179 119 333 -4 58 -8 138 -10 178 -4 69 -11 132 -20 183 -3 14 -7 35 -10
48 -3 18 3 25 31 37 56 23 120 98 134 155 41 171 -70 320 -238 320 -97 0 -168
-45 -227 -145 -9 -15 -15 -16 -50 -5 -64 19 -288 22 -375 5 -51 -10 -76 -12
-79 -4 -11 34 -74 97 -120 121 -57 30 -131 36 -200 16z m167 -72 c29 -15 63
-50 79 -80 9 -17 3 -24 -48 -58 -63 -42 -104 -88 -138 -155 -12 -24 -24 -43
-27 -43 -33 0 -110 73 -119 113 -18 79 -11 117 31 173 47 63 151 87 222 50z
m970 -3 c127 -60 127 -253 0 -319 -38 -20 -42 -18 -56 19 -18 48 -87 128 -148
168 l-54 36 22 33 c57 83 144 106 236 63z m-365 -134 c246 -69 319 -233 321
-729 1 -134 -10 -167 -84 -241 -79 -79 -245 -161 -386 -190 -52 -11 -70 -10
-130 5 -213 53 -380 162 -435 283 -20 43 -21 58 -15 202 11 276 27 378 75 476
52 105 139 171 264 200 86 20 307 16 390 -6z"/>
<path d="M1255 1232 c-54 -11 -73 -74 -35 -112 41 -41 110 -10 110 48 0 40
-38 72 -75 64z"/>
<path d="M685 1210 c-38 -42 -7 -110 51 -110 29 0 64 36 64 67 0 54 -78 84
-115 43z"/>
<path d="M817 1098 c-10 -39 -36 -116 -58 -171 -91 -227 -50 -343 137 -381
131 -27 278 -2 337 58 69 68 69 158 1 331 -23 61 -48 138 -55 173 -13 62 -13
62 -46 60 -18 -1 -33 -7 -33 -13 0 -33 45 -180 77 -255 30 -70 37 -97 37 -154
1 -66 0 -69 -33 -97 -44 -36 -94 -47 -201 -44 -98 3 -147 20 -179 61 -34 43
-25 121 27 254 41 103 75 227 67 240 -2 4 -17 7 -33 8 -27 1 -29 -3 -45 -70z"/>
<path d="M905 885 c-43 -15 -75 -47 -75 -74 1 -30 70 -112 108 -128 72 -30
158 1 203 74 28 44 31 69 11 92 -39 46 -169 65 -247 36z"/>
</g>
</svg>
